<svg width="368" height="368" viewBox="0 0 368 368" fill="none" xmlns="http://www.w3.org/2000/svg">
<mask id="path-1-inside-1_1_13" fill="white">
<path fill-rule="evenodd" clip-rule="evenodd" d="M347 184C347 274.022 274.022 347 184 347C93.9776 347 21 274.022 21 184C21 93.9776 93.9776 21 184 21C274.022 21 347 93.9776 347 184ZM368 184C368 285.62 285.62 368 184 368C82.3796 368 0 285.62 0 184C0 82.3796 82.3796 0 184 0C285.62 0 368 82.3796 368 184ZM282.903 96.2902C287.11 88.4267 278.546 79.8911 270.697 84.123L152.427 147.883C151.661 148.296 150.983 148.799 150.398 149.369C148.997 150.173 147.788 151.372 146.953 152.938L84.1023 270.861C79.9144 278.719 88.4596 287.236 96.3035 283.023L214.022 219.789C214.747 219.4 215.393 218.93 215.956 218.398C217.409 217.597 218.667 216.376 219.528 214.766L282.903 96.2902ZM203 184.5C203 195.27 194.27 204 183.5 204C172.73 204 164 195.27 164 184.5C164 173.73 172.73 165 183.5 165C194.27 165 203 173.73 203 184.5Z"/>
</mask>
<path fill-rule="evenodd" clip-rule="evenodd" d="M347 184C347 274.022 274.022 347 184 347C93.9776 347 21 274.022 21 184C21 93.9776 93.9776 21 184 21C274.022 21 347 93.9776 347 184ZM368 184C368 285.62 285.62 368 184 368C82.3796 368 0 285.62 0 184C0 82.3796 82.3796 0 184 0C285.62 0 368 82.3796 368 184ZM282.903 96.2902C287.11 88.4267 278.546 79.8911 270.697 84.123L152.427 147.883C151.661 148.296 150.983 148.799 150.398 149.369C148.997 150.173 147.788 151.372 146.953 152.938L84.1023 270.861C79.9144 278.719 88.4596 287.236 96.3035 283.023L214.022 219.789C214.747 219.4 215.393 218.93 215.956 218.398C217.409 217.597 218.667 216.376 219.528 214.766L282.903 96.2902ZM203 184.5C203 195.27 194.27 204 183.5 204C172.73 204 164 195.27 164 184.5C164 173.73 172.73 165 183.5 165C194.27 165 203 173.73 203 184.5Z" fill="#FF7643"/>
<path d="M270.697 84.123L271.171 85.0032L271.171 85.0032L270.697 84.123ZM282.903 96.2902L282.022 95.8185L282.022 95.8185L282.903 96.2902ZM152.427 147.883L152.901 148.763L152.901 148.763L152.427 147.883ZM150.398 149.369L150.896 150.237L151.005 150.174L151.096 150.085L150.398 149.369ZM146.953 152.938L147.836 153.408L147.836 153.408L146.953 152.938ZM84.1023 270.861L83.2198 270.391L83.2198 270.391L84.1023 270.861ZM96.3035 283.023L95.8303 282.142L95.8303 282.142L96.3035 283.023ZM214.022 219.789L213.549 218.908L213.549 218.908L214.022 219.789ZM215.956 218.398L215.473 217.522L215.362 217.584L215.27 217.671L215.956 218.398ZM219.528 214.766L218.646 214.295L218.646 214.295L219.528 214.766ZM184 348C274.575 348 348 274.575 348 184H346C346 273.47 273.47 346 184 346V348ZM20 184C20 274.575 93.4253 348 184 348V346C94.5299 346 22 273.47 22 184H20ZM184 20C93.4253 20 20 93.4253 20 184H22C22 94.5299 94.5299 22 184 22V20ZM348 184C348 93.4253 274.575 20 184 20V22C273.47 22 346 94.5299 346 184H348ZM184 369C286.173 369 369 286.173 369 184H367C367 285.068 285.068 367 184 367V369ZM-1 184C-1 286.173 81.8273 369 184 369V367C82.9319 367 1 285.068 1 184H-1ZM184 -1C81.8273 -1 -1 81.8273 -1 184H1C1 82.9319 82.9319 1 184 1V-1ZM369 184C369 81.8273 286.173 -1 184 -1V1C285.068 1 367 82.9319 367 184H369ZM271.171 85.0032C278.149 81.2415 285.761 88.8287 282.022 95.8185L283.785 96.7619C288.459 88.0246 278.944 78.5406 270.222 83.2427L271.171 85.0032ZM152.901 148.763L271.171 85.0032L270.222 83.2427L151.952 147.003L152.901 148.763ZM151.096 150.085C151.615 149.579 152.217 149.132 152.901 148.763L151.952 147.003C151.104 147.46 150.351 148.018 149.7 148.653L151.096 150.085ZM147.836 153.408C148.58 152.013 149.654 150.95 150.896 150.237L149.9 148.502C148.341 149.397 146.996 150.731 146.071 152.468L147.836 153.408ZM84.9847 271.331L147.836 153.408L146.071 152.468L83.2198 270.391L84.9847 271.331ZM95.8303 282.142C88.858 285.887 81.2622 278.316 84.9847 271.331L83.2198 270.391C78.5666 279.121 88.0613 288.585 96.7767 283.904L95.8303 282.142ZM213.549 218.908L95.8303 282.142L96.7767 283.904L214.495 220.67L213.549 218.908ZM215.27 217.671C214.77 218.142 214.196 218.561 213.549 218.908L214.495 220.67C215.298 220.239 216.015 219.717 216.643 219.126L215.27 217.671ZM218.646 214.295C217.879 215.729 216.762 216.812 215.473 217.522L216.439 219.274C218.057 218.382 219.455 217.023 220.41 215.238L218.646 214.295ZM282.022 95.8185L218.646 214.295L220.41 215.238L283.785 96.7619L282.022 95.8185ZM183.5 205C194.822 205 204 195.822 204 184.5H202C202 194.717 193.717 203 183.5 203V205ZM163 184.5C163 195.822 172.178 205 183.5 205V203C173.283 203 165 194.717 165 184.5H163ZM183.5 164C172.178 164 163 173.178 163 184.5H165C165 174.283 173.283 166 183.5 166V164ZM204 184.5C204 173.178 194.822 164 183.5 164V166C193.717 166 202 174.283 202 184.5H204Z" fill="#FF7643" mask="url(#path-1-inside-1_1_13)"/>
</svg>
