<svg width="17" height="13" viewBox="0 0 17 13" fill="none" xmlns="http://www.w3.org/2000/svg">
<mask id="path-1-inside-1_3_63" fill="white">
<path fill-rule="evenodd" clip-rule="evenodd" d="M6.36299 1.78293C6.51121 2.13999 6.3419 2.54959 5.98485 2.69781C5.62779 2.84602 5.21818 2.67672 5.06996 2.31966C4.92175 1.9626 5.09105 1.553 5.44811 1.40478C5.80517 1.25657 6.21478 1.42587 6.36299 1.78293ZM6.61051 3.25619C7.15095 2.85582 7.37137 2.12548 7.10186 1.47622C6.78426 0.711096 5.90653 0.348306 5.14141 0.665909C4.37628 0.983513 4.01349 1.86124 4.33109 2.62637C4.57383 3.21113 5.14373 3.56088 5.74049 3.5515C5.77439 3.55097 5.80572 3.57048 5.81872 3.60179L7.73236 8.21188L7.18508 9.53033L7.18344 9.53429L7.18337 9.53444L7.18166 9.53856L7.14533 9.62609C7.14516 9.62649 7.14471 9.62668 7.14431 9.62651C7.14392 9.62635 7.14348 9.62653 7.1433 9.62691C6.43447 11.1957 4.6022 11.9277 3.00106 11.2631C1.39993 10.5985 0.624677 8.78408 1.2352 7.17446C1.23535 7.17407 1.23516 7.17364 1.23478 7.17348C1.23439 7.17331 1.2342 7.17286 1.23436 7.17247L1.87881 5.61994C1.90032 5.56814 1.96706 5.55397 2.00775 5.59256L2.55671 6.11322C2.61732 6.1707 2.71439 6.10852 2.68751 6.02944L1.92532 3.78657C1.90158 3.71671 1.80398 3.71349 1.77569 3.78164L1.30188 4.92307L1.30188 4.92308L1.30189 4.92309L0.457826 6.95651C0.457295 6.95779 0.457901 6.95925 0.459181 6.95978C0.460416 6.9603 0.461027 6.9617 0.460576 6.96296C-0.252963 8.95685 0.716704 11.1811 2.69436 12.002C4.7347 12.8489 7.0753 11.8815 7.92224 9.84115L8.16546 9.25523L8.32173 9.63171C9.16868 11.672 11.5093 12.6395 13.5496 11.7925C15.5273 10.9716 16.4969 8.74741 15.7834 6.75352C15.7829 6.75226 15.7836 6.75085 15.7848 6.75034C15.7861 6.74981 15.7867 6.74834 15.7862 6.74706L14.9421 4.71365L14.9421 4.71364L14.9421 4.71363L14.4683 3.57219C14.44 3.50405 14.3424 3.50727 14.3187 3.57712L13.5565 5.82C13.5296 5.89908 13.6267 5.96126 13.6873 5.90378L14.2362 5.38312C14.2769 5.34453 14.3437 5.3587 14.3652 5.4105L15.0096 6.96303C15.0098 6.96342 15.0096 6.96387 15.0092 6.96403C15.0088 6.96419 15.0086 6.96463 15.0088 6.96502C15.6193 8.57463 14.8441 10.389 13.2429 11.0537C11.6418 11.7183 9.80951 10.9863 9.10067 9.41747C9.10057 9.41724 9.10037 9.41709 9.10014 9.41703C9.09999 9.417 9.09982 9.41701 9.09967 9.41707C9.09927 9.41724 9.09881 9.41705 9.09865 9.41665L9.06232 9.32912L9.0606 9.325L9.06054 9.32485L9.0589 9.32089L8.59855 8.21188L10.4253 3.81123C10.4383 3.77992 10.4696 3.76041 10.5035 3.76095C11.1002 3.77032 11.6702 3.42057 11.9129 2.83581C12.2305 2.07068 11.8677 1.19295 11.1026 0.875352C10.3374 0.557748 9.45972 0.920538 9.14211 1.68567C8.87261 2.33492 9.09302 3.06526 9.63347 3.46563C9.66404 3.48828 9.67637 3.52865 9.66178 3.56379L8.16546 7.16854L8.14034 7.10803L6.58219 3.35435C6.56761 3.31921 6.57994 3.27884 6.61051 3.25619ZM9.88099 1.99237C9.73277 2.34943 9.90207 2.75904 10.2591 2.90725C10.6162 3.05546 11.0258 2.88616 11.174 2.5291C11.3222 2.17204 11.1529 1.76244 10.7959 1.61422C10.4388 1.46601 10.0292 1.63531 9.88099 1.99237Z"/>
</mask>
<path fill-rule="evenodd" clip-rule="evenodd" d="M6.36299 1.78293C6.51121 2.13999 6.3419 2.54959 5.98485 2.69781C5.62779 2.84602 5.21818 2.67672 5.06996 2.31966C4.92175 1.9626 5.09105 1.553 5.44811 1.40478C5.80517 1.25657 6.21478 1.42587 6.36299 1.78293ZM6.61051 3.25619C7.15095 2.85582 7.37137 2.12548 7.10186 1.47622C6.78426 0.711096 5.90653 0.348306 5.14141 0.665909C4.37628 0.983513 4.01349 1.86124 4.33109 2.62637C4.57383 3.21113 5.14373 3.56088 5.74049 3.5515C5.77439 3.55097 5.80572 3.57048 5.81872 3.60179L7.73236 8.21188L7.18508 9.53033L7.18344 9.53429L7.18337 9.53444L7.18166 9.53856L7.14533 9.62609C7.14516 9.62649 7.14471 9.62668 7.14431 9.62651C7.14392 9.62635 7.14348 9.62653 7.1433 9.62691C6.43447 11.1957 4.6022 11.9277 3.00106 11.2631C1.39993 10.5985 0.624677 8.78408 1.2352 7.17446C1.23535 7.17407 1.23516 7.17364 1.23478 7.17348C1.23439 7.17331 1.2342 7.17286 1.23436 7.17247L1.87881 5.61994C1.90032 5.56814 1.96706 5.55397 2.00775 5.59256L2.55671 6.11322C2.61732 6.1707 2.71439 6.10852 2.68751 6.02944L1.92532 3.78657C1.90158 3.71671 1.80398 3.71349 1.77569 3.78164L1.30188 4.92307L1.30188 4.92308L1.30189 4.92309L0.457826 6.95651C0.457295 6.95779 0.457901 6.95925 0.459181 6.95978C0.460416 6.9603 0.461027 6.9617 0.460576 6.96296C-0.252963 8.95685 0.716704 11.1811 2.69436 12.002C4.7347 12.8489 7.0753 11.8815 7.92224 9.84115L8.16546 9.25523L8.32173 9.63171C9.16868 11.672 11.5093 12.6395 13.5496 11.7925C15.5273 10.9716 16.4969 8.74741 15.7834 6.75352C15.7829 6.75226 15.7836 6.75085 15.7848 6.75034C15.7861 6.74981 15.7867 6.74834 15.7862 6.74706L14.9421 4.71365L14.9421 4.71364L14.9421 4.71363L14.4683 3.57219C14.44 3.50405 14.3424 3.50727 14.3187 3.57712L13.5565 5.82C13.5296 5.89908 13.6267 5.96126 13.6873 5.90378L14.2362 5.38312C14.2769 5.34453 14.3437 5.3587 14.3652 5.4105L15.0096 6.96303C15.0098 6.96342 15.0096 6.96387 15.0092 6.96403C15.0088 6.96419 15.0086 6.96463 15.0088 6.96502C15.6193 8.57463 14.8441 10.389 13.2429 11.0537C11.6418 11.7183 9.80951 10.9863 9.10067 9.41747C9.10057 9.41724 9.10037 9.41709 9.10014 9.41703C9.09999 9.417 9.09982 9.41701 9.09967 9.41707C9.09927 9.41724 9.09881 9.41705 9.09865 9.41665L9.06232 9.32912L9.0606 9.325L9.06054 9.32485L9.0589 9.32089L8.59855 8.21188L10.4253 3.81123C10.4383 3.77992 10.4696 3.76041 10.5035 3.76095C11.1002 3.77032 11.6702 3.42057 11.9129 2.83581C12.2305 2.07068 11.8677 1.19295 11.1026 0.875352C10.3374 0.557748 9.45972 0.920538 9.14211 1.68567C8.87261 2.33492 9.09302 3.06526 9.63347 3.46563C9.66404 3.48828 9.67637 3.52865 9.66178 3.56379L8.16546 7.16854L8.14034 7.10803L6.58219 3.35435C6.56761 3.31921 6.57994 3.27884 6.61051 3.25619ZM9.88099 1.99237C9.73277 2.34943 9.90207 2.75904 10.2591 2.90725C10.6162 3.05546 11.0258 2.88616 11.174 2.5291C11.3222 2.17204 11.1529 1.76244 10.7959 1.61422C10.4388 1.46601 10.0292 1.63531 9.88099 1.99237Z" fill="black"/>
<path d="M5.98485 2.69781L6.36823 3.6214L6.36823 3.6214L5.98485 2.69781ZM5.06996 2.31966L4.14637 2.70304L4.14637 2.70304L5.06996 2.31966ZM5.44811 1.40478L5.83149 2.32837L5.83149 2.32837L5.44811 1.40478ZM7.10186 1.47622L6.17827 1.8596L6.17827 1.8596L7.10186 1.47622ZM6.61051 3.25619L7.20578 4.05972L7.20578 4.05972L6.61051 3.25619ZM5.14141 0.665909L4.75803 -0.257681L4.75803 -0.257681L5.14141 0.665909ZM4.33109 2.62637L5.25468 2.24299L5.25468 2.24299L4.33109 2.62637ZM5.74049 3.5515L5.72478 2.55163L5.72478 2.55163L5.74049 3.5515ZM5.81872 3.60179L4.89513 3.98517L4.89513 3.98517L5.81872 3.60179ZM7.73236 8.21188L8.65595 8.59527L8.8151 8.21188L8.65595 7.8285L7.73236 8.21188ZM7.18508 9.53033L6.26149 9.14695L6.26122 9.14759L7.18508 9.53033ZM7.18344 9.53429L6.25958 9.15155L6.25952 9.15169L7.18344 9.53429ZM7.18337 9.53444L8.10668 9.91851L8.10729 9.91705L7.18337 9.53444ZM7.18166 9.53856L6.25835 9.1545L6.25807 9.15519L7.18166 9.53856ZM7.14533 9.62609L6.22173 9.24271L6.22159 9.24306L7.14533 9.62609ZM7.14431 9.62651L7.52869 8.70333L7.52626 8.70233L7.14431 9.62651ZM7.1433 9.62691L6.23228 9.21457L6.23201 9.21516L7.1433 9.62691ZM3.00106 11.2631L2.61768 12.1867L2.61768 12.1867L3.00106 11.2631ZM1.2352 7.17446L0.300297 6.81957L0.300202 6.81982L1.2352 7.17446ZM1.23478 7.17348L1.61821 6.24991L1.61776 6.24972L1.23478 7.17348ZM1.23436 7.17247L2.15794 7.55589L2.15796 7.55585L1.23436 7.17247ZM1.87881 5.61994L0.955223 5.23656L0.955222 5.23656L1.87881 5.61994ZM2.00775 5.59256L2.69591 4.867L2.69591 4.867L2.00775 5.59256ZM2.55671 6.11322L1.86855 6.83878L1.86856 6.83879L2.55671 6.11322ZM2.68751 6.02944L3.63434 5.70769L3.63433 5.70768L2.68751 6.02944ZM1.92532 3.78657L0.978501 4.10832L0.978501 4.10832L1.92532 3.78657ZM1.77569 3.78164L2.69928 4.16502L2.69928 4.16502L1.77569 3.78164ZM1.30188 4.92307L0.378293 4.53969L0.261139 4.82192L0.321754 5.12143L1.30188 4.92307ZM1.30188 4.92308L0.321756 5.12144L0.323901 5.13204L0.326275 5.14259L1.30188 4.92308ZM1.30189 4.92309L2.22548 5.30647L2.34718 5.01328L2.2775 4.70358L1.30189 4.92309ZM0.457826 6.95651L-0.465766 6.57313L-0.465778 6.57316L0.457826 6.95651ZM0.459181 6.95978L0.842553 6.03619L0.842391 6.03612L0.459181 6.95978ZM0.460576 6.96296L-0.480944 6.626L-0.480951 6.62602L0.460576 6.96296ZM2.69436 12.002L3.07774 11.0784L3.07774 11.0784L2.69436 12.002ZM7.92224 9.84115L8.84583 10.2245L8.84583 10.2245L7.92224 9.84115ZM8.16546 9.25523L9.08905 8.87185L8.16546 6.64686L7.24187 8.87185L8.16546 9.25523ZM8.32173 9.63171L9.24532 9.24833L9.24532 9.24833L8.32173 9.63171ZM13.5496 11.7925L13.1662 10.869L13.1662 10.869L13.5496 11.7925ZM15.7834 6.75352L14.8418 7.09021L14.8419 7.09045L15.7834 6.75352ZM15.7848 6.75034L15.4015 5.82672L15.4014 5.82674L15.7848 6.75034ZM15.7862 6.74706L16.7099 6.36419L16.7097 6.36369L15.7862 6.74706ZM14.9421 4.71365L13.9615 4.51753L13.9018 4.81595L14.0185 5.09703L14.9421 4.71365ZM14.9421 4.71364L13.9806 4.43892L13.9694 4.47783L13.9615 4.51752L14.9421 4.71364ZM14.9421 4.71363L15.9036 4.98835L15.9995 4.65268L15.8657 4.33025L14.9421 4.71363ZM14.4683 3.57219L15.3919 3.18881L15.3919 3.18881L14.4683 3.57219ZM14.3187 3.57712L15.2655 3.89888L15.2655 3.89888L14.3187 3.57712ZM13.5565 5.82L12.6096 5.49824L12.6096 5.49825L13.5565 5.82ZM13.6873 5.90378L14.3754 6.62935L14.3754 6.62934L13.6873 5.90378ZM14.2362 5.38312L14.9244 6.10868L14.9244 6.10868L14.2362 5.38312ZM14.3652 5.4105L13.4416 5.79387L13.4416 5.79387L14.3652 5.4105ZM15.0096 6.96303L15.9337 6.58081L15.9332 6.57965L15.0096 6.96303ZM15.0092 6.96403L14.626 6.04036L14.6256 6.04055L15.0092 6.96403ZM15.0088 6.96502L15.9438 6.61037L15.9433 6.60912L15.0088 6.96502ZM13.2429 11.0537L13.6263 11.9773L13.6263 11.9773L13.2429 11.0537ZM9.10067 9.41747L10.012 9.00572L10.0118 9.00538L9.10067 9.41747ZM9.10014 9.41703L9.32737 8.44319L9.32544 8.44274L9.10014 9.41703ZM9.09967 9.41707L8.71948 8.49215L8.71489 8.49406L9.09967 9.41707ZM9.09865 9.41665L10.0228 9.03456L10.0222 9.03327L9.09865 9.41665ZM9.06232 9.32912L9.98591 8.94574L9.98562 8.94505L9.06232 9.32912ZM9.0606 9.325L9.98391 8.94093L9.98351 8.93999L9.0606 9.325ZM9.06054 9.32485L8.13664 9.70749L8.13763 9.70986L9.06054 9.32485ZM9.0589 9.32089L9.9828 8.93825L9.98249 8.9375L9.0589 9.32089ZM8.59855 8.21188L7.67496 7.8285L7.51582 8.21188L7.67496 8.59527L8.59855 8.21188ZM10.4253 3.81123L11.3488 4.19461L11.3488 4.19461L10.4253 3.81123ZM10.5035 3.76095L10.5192 2.76107L10.5192 2.76107L10.5035 3.76095ZM11.9129 2.83581L10.9893 2.45243L10.9893 2.45243L11.9129 2.83581ZM11.1026 0.875352L11.486 -0.0482386L11.1026 0.875352ZM9.14211 1.68567L10.0657 2.06905L10.0657 2.06905L9.14211 1.68567ZM9.63347 3.46563L9.0382 4.26916L9.0382 4.26916L9.63347 3.46563ZM9.66178 3.56379L10.5854 3.94717L10.5854 3.94716L9.66178 3.56379ZM8.16546 7.16854L7.24187 7.55192L8.16546 9.77691L9.08905 7.55192L8.16546 7.16854ZM8.14034 7.10803L9.06393 6.72465L9.06393 6.72465L8.14034 7.10803ZM6.58219 3.35435L7.50578 2.97097L7.50578 2.97097L6.58219 3.35435ZM9.88099 1.99237L10.8046 2.37575L10.8046 2.37575L9.88099 1.99237ZM11.174 2.5291L10.2504 2.14572L10.2504 2.14572L11.174 2.5291ZM10.7959 1.61422L10.4125 2.53781L10.4125 2.53781L10.7959 1.61422ZM6.36823 3.6214C7.23537 3.26145 7.64653 2.26669 7.28658 1.39955L5.4394 2.16631C5.37588 2.01328 5.44844 1.83774 5.60146 1.77422L6.36823 3.6214ZM4.14637 2.70304C4.50633 3.57019 5.50108 3.98135 6.36823 3.6214L5.60146 1.77422C5.75449 1.7107 5.93003 1.78325 5.99356 1.93628L4.14637 2.70304ZM5.06473 0.481191C4.19759 0.841142 3.78642 1.8359 4.14637 2.70304L5.99356 1.93628C6.05708 2.08931 5.98452 2.26485 5.83149 2.32837L5.06473 0.481191ZM7.28658 1.39955C6.92663 0.532403 5.93187 0.121241 5.06473 0.481191L5.83149 2.32837C5.67847 2.39189 5.50292 2.31933 5.4394 2.16631L7.28658 1.39955ZM6.17827 1.8596C6.26759 2.07478 6.19548 2.31914 6.01524 2.45266L7.20578 4.05972C8.10642 3.3925 8.47515 2.17618 8.02545 1.09284L6.17827 1.8596ZM5.52479 1.5895C5.77983 1.48363 6.07241 1.60456 6.17827 1.8596L8.02545 1.09284C7.49612 -0.18237 6.03324 -0.787019 4.75803 -0.257681L5.52479 1.5895ZM5.25468 2.24299C5.14882 1.98794 5.26975 1.69537 5.52479 1.5895L4.75803 -0.257681C3.48281 0.271658 2.87816 1.73454 3.4075 3.00975L5.25468 2.24299ZM5.72478 2.55163C5.52395 2.55478 5.33499 2.43645 5.25468 2.24299L3.4075 3.00975C3.81266 3.9858 4.76351 4.56698 5.7562 4.55138L5.72478 2.55163ZM6.74231 3.21841C6.56383 2.78843 6.14637 2.545 5.72478 2.55163L5.7562 4.55138C5.40241 4.55694 5.04762 4.35252 4.89513 3.98517L6.74231 3.21841ZM8.65595 7.8285L6.74231 3.21841L4.89513 3.98517L6.80877 8.59526L8.65595 7.8285ZM6.80877 7.8285L6.26149 9.14695L8.10867 9.91371L8.65595 8.59527L6.80877 7.8285ZM6.26122 9.14759L6.25958 9.15155L8.1073 9.91702L8.10894 9.91306L6.26122 9.14759ZM6.25952 9.15169L6.25946 9.15184L8.10729 9.91705L8.10735 9.91689L6.25952 9.15169ZM6.26007 9.15038L6.25835 9.1545L8.10496 9.92263L8.10668 9.91851L6.26007 9.15038ZM6.25807 9.15519L6.22173 9.24271L8.06892 10.0095L8.10525 9.92194L6.25807 9.15519ZM6.22159 9.24306C6.43291 8.73344 7.01803 8.49072 7.52869 8.70334L6.75993 10.5497C7.27138 10.7626 7.85741 10.5195 8.06906 10.0091L6.22159 9.24306ZM7.52626 8.70233C7.02222 8.49402 6.45256 8.72788 6.23228 9.21457L8.05433 10.0393C7.83439 10.5252 7.26562 10.7587 6.76236 10.5507L7.52626 8.70233ZM6.23201 9.21516C5.74493 10.2932 4.48506 10.7964 3.38444 10.3395L2.61768 12.1867C4.71934 13.0591 7.12401 12.0983 8.0546 10.0387L6.23201 9.21516ZM3.38444 10.3395C2.28383 9.88266 1.75068 8.63516 2.1702 7.52911L0.300202 6.81982C-0.501323 8.93299 0.516022 11.3143 2.61768 12.1867L3.38444 10.3395ZM2.17011 7.52936C2.35973 7.02983 2.12355 6.45971 1.61821 6.24991L0.851347 8.09704C0.346774 7.88756 0.110968 7.31832 0.300297 6.81957L2.17011 7.52936ZM1.61776 6.24972C2.12797 6.46125 2.3695 7.04629 2.15794 7.55589L0.31079 6.78905C0.0989053 7.29944 0.340806 7.88538 0.8518 8.09723L1.61776 6.24972ZM2.15796 7.55585L2.8024 6.00332L0.955222 5.23656L0.310773 6.78909L2.15796 7.55585ZM2.8024 6.00332C2.55513 6.59902 1.78757 6.76197 1.3196 6.31813L2.69591 4.867C2.14655 4.34597 1.2455 4.53726 0.955223 5.23656L2.8024 6.00332ZM1.31959 6.31812L1.86855 6.83878L3.24487 5.38766L2.69591 4.867L1.31959 6.31812ZM1.86856 6.83879C2.68671 7.61475 3.99715 6.77535 3.63434 5.70769L1.74069 6.35119C1.43162 5.4417 2.54793 4.72666 3.24487 5.38766L1.86856 6.83879ZM3.63433 5.70768L2.87215 3.46481L0.978501 4.10832L1.74069 6.35119L3.63433 5.70768ZM2.87215 3.46481C2.55166 2.52172 1.23397 2.4783 0.852101 3.39826L2.69928 4.16502C2.37398 4.94868 1.25151 4.91169 0.978501 4.10832L2.87215 3.46481ZM0.852101 3.39825L0.378293 4.53969L2.22547 5.30645L2.69928 4.16502L0.852101 3.39825ZM0.321754 5.12143L0.321756 5.12144L2.28201 4.72472L2.28201 4.72471L0.321754 5.12143ZM0.326275 5.14259L0.326277 5.1426L2.2775 4.70358L2.27749 4.70357L0.326275 5.14259ZM0.378296 4.53971L-0.465766 6.57313L1.38142 7.33989L2.22548 5.30647L0.378296 4.53971ZM-0.465778 6.57316C-0.67795 7.08435 -0.435723 7.67115 0.0759699 7.88345L0.842391 6.03612C1.35153 6.24735 1.59254 6.83122 1.38143 7.33985L-0.465778 6.57316ZM0.075808 7.88338C-0.421247 7.67706 -0.657854 7.12033 -0.480944 6.626L1.4021 7.29991C1.57991 6.80307 1.34208 6.24354 0.842553 6.03619L0.075808 7.88338ZM-0.480951 6.62602C-1.37315 9.11917 -0.161364 11.8993 2.31098 12.9256L3.07774 11.0784C1.59477 10.4628 0.867228 8.79454 1.4021 7.2999L-0.480951 6.62602ZM2.31098 12.9256C4.8614 13.9843 7.78716 12.775 8.84583 10.2245L6.99865 9.45777C6.36345 10.988 4.60799 11.7136 3.07774 11.0784L2.31098 12.9256ZM8.84583 10.2245L9.08905 9.63861L7.24187 8.87185L6.99865 9.45777L8.84583 10.2245ZM9.24532 9.24833L9.08905 8.87185L7.24187 9.63861L7.39814 10.0151L9.24532 9.24833ZM13.1662 10.869C11.636 11.5042 9.88053 10.7786 9.24532 9.24833L7.39814 10.0151C8.45682 12.5655 11.3826 13.7748 13.933 12.7161L13.1662 10.869ZM14.8419 7.09045C15.3767 8.5851 14.6492 10.2534 13.1662 10.869L13.933 12.7161C16.4053 11.6899 17.6171 8.90973 16.7249 6.41658L14.8419 7.09045ZM15.4014 5.82674C14.9019 6.0341 14.6642 6.59357 14.8418 7.09021L16.725 6.41682C16.9017 6.91094 16.6653 7.46761 16.1681 7.67395L15.4014 5.82674ZM14.8624 7.12994C14.6517 6.62166 14.8924 6.038 15.4015 5.82672L16.1681 7.67397C16.6798 7.46162 16.9217 6.87503 16.7099 6.36419L14.8624 7.12994ZM14.0185 5.09703L14.8626 7.13044L16.7097 6.36369L15.8657 4.33027L14.0185 5.09703ZM13.9615 4.51752L13.9615 4.51753L15.9227 4.90976L15.9227 4.90975L13.9615 4.51752ZM13.9806 4.43891L13.9806 4.43892L15.9036 4.98836L15.9036 4.98835L13.9806 4.43891ZM13.5447 3.95558L14.0185 5.09701L15.8657 4.33025L15.3919 3.18881L13.5447 3.95558ZM15.2655 3.89888C14.9925 4.70225 13.87 4.73924 13.5447 3.95558L15.3919 3.18881C15.01 2.26886 13.6923 2.31228 13.3718 3.25537L15.2655 3.89888ZM14.5033 6.14175L15.2655 3.89888L13.3718 3.25537L12.6096 5.49824L14.5033 6.14175ZM12.9991 5.17822C13.6961 4.51719 14.8123 5.23228 14.5033 6.14174L12.6096 5.49825C12.2468 6.56588 13.5572 7.40533 14.3754 6.62935L12.9991 5.17822ZM13.5481 4.65756L12.9991 5.17822L14.3754 6.62934L14.9244 6.10868L13.5481 4.65756ZM15.2888 5.02712C14.9985 4.32782 14.0974 4.13652 13.5481 4.65756L14.9244 6.10868C14.4564 6.55253 13.6888 6.38957 13.4416 5.79387L15.2888 5.02712ZM15.9332 6.57965L15.2888 5.02712L13.4416 5.79387L14.086 7.34641L15.9332 6.57965ZM15.3924 7.88771C15.9034 7.67573 16.1444 7.09035 15.9337 6.58081L14.0855 7.34525C13.8751 6.8365 14.1158 6.25201 14.626 6.04036L15.3924 7.88771ZM15.9433 6.60912C16.1338 7.10935 15.8963 7.67836 15.3928 7.88752L14.6256 6.04055C14.1213 6.25003 13.8834 6.81992 14.0742 7.32092L15.9433 6.60912ZM13.6263 11.9773C15.728 11.1049 16.7453 8.72355 15.9438 6.61038L14.0738 7.31967C14.4933 8.42572 13.9601 9.67322 12.8595 10.1301L13.6263 11.9773ZM8.18938 9.82922C9.11997 11.8888 11.5246 12.8497 13.6263 11.9773L12.8595 10.1301C11.7589 10.5869 10.499 10.0837 10.012 9.00572L8.18938 9.82922ZM8.87291 10.3909C8.58332 10.3233 8.32307 10.1248 8.18953 9.82957L10.0118 9.00538C9.87807 8.70967 9.61741 8.51087 9.32737 8.44319L8.87291 10.3909ZM9.47984 10.342C9.27979 10.4242 9.06773 10.4359 8.87483 10.3913L9.32544 8.44274C9.13224 8.39807 8.91985 8.4098 8.71949 8.49216L9.47984 10.342ZM8.17453 9.79874C8.38608 10.3104 8.97308 10.5533 9.48444 10.3401L8.71489 8.49406C9.22546 8.28122 9.81155 8.52368 10.0228 9.03456L8.17453 9.79874ZM8.13873 9.7125L8.17506 9.80003L10.0222 9.03327L9.98591 8.94574L8.13873 9.7125ZM8.1373 9.70907L8.13901 9.71319L9.98562 8.94505L9.98391 8.94093L8.1373 9.70907ZM8.13763 9.70986L8.13769 9.71002L9.98351 8.93999L9.98345 8.93983L8.13763 9.70986ZM8.135 9.70353L8.13664 9.70749L9.98444 8.94221L9.9828 8.93825L8.135 9.70353ZM7.67496 8.59527L8.13531 9.70427L9.98249 8.9375L9.52214 7.8285L7.67496 8.59527ZM9.52214 8.59526L11.3488 4.19461L9.50166 3.42785L7.67496 7.8285L9.52214 8.59526ZM11.3488 4.19461C11.1964 4.56196 10.8416 4.76638 10.4878 4.76082L10.5192 2.76107C10.0976 2.75444 9.68015 2.99787 9.50166 3.42785L11.3488 4.19461ZM10.4878 4.76082C11.4805 4.77642 12.4313 4.19525 12.8365 3.21919L10.9893 2.45243C10.909 2.64589 10.72 2.76422 10.5192 2.76107L10.4878 4.76082ZM12.8365 3.21919C13.3658 1.94398 12.7612 0.4811 11.486 -0.0482386L10.7192 1.79894C10.9742 1.90481 11.0952 2.19739 10.9893 2.45243L12.8365 3.21919ZM11.486 -0.0482386C10.2107 -0.577577 8.74786 0.0270722 8.21852 1.30228L10.0657 2.06905C10.1716 1.814 10.4641 1.69307 10.7192 1.79894L11.486 -0.0482386ZM8.21852 1.30228C7.76883 2.38562 8.13755 3.60194 9.0382 4.26916L10.2287 2.6621C10.0485 2.52858 9.97638 2.28422 10.0657 2.06905L8.21852 1.30228ZM9.0382 4.26916C8.72113 4.03427 8.56677 3.59339 8.73819 3.18042L10.5854 3.94716C10.786 3.46391 10.6069 2.94229 10.2287 2.6621L9.0382 4.26916ZM8.73819 3.18041L7.24187 6.78515L9.08905 7.55192L10.5854 3.94717L8.73819 3.18041ZM7.21675 7.49141L7.24187 7.55192L9.08905 6.78516L9.06393 6.72465L7.21675 7.49141ZM5.6586 3.73773L7.21675 7.49141L9.06393 6.72465L7.50578 2.97097L5.6586 3.73773ZM6.01524 2.45266C5.63704 2.73284 5.458 3.25446 5.6586 3.73773L7.50578 2.97097C7.67722 3.38396 7.52284 3.82484 7.20578 4.05972L6.01524 2.45266ZM10.6425 1.98366C10.7955 2.04718 10.8681 2.22273 10.8046 2.37575L8.9574 1.60899C8.59744 2.47613 9.00861 3.47089 9.87575 3.83084L10.6425 1.98366ZM10.2504 2.14572C10.3139 1.9927 10.4895 1.92014 10.6425 1.98366L9.87575 3.83084C10.7429 4.19079 11.7377 3.77963 12.0976 2.91248L10.2504 2.14572ZM10.4125 2.53781C10.2595 2.47429 10.1869 2.29875 10.2504 2.14572L12.0976 2.91249C12.4576 2.04534 12.0464 1.05058 11.1792 0.690634L10.4125 2.53781ZM10.8046 2.37575C10.7411 2.52878 10.5655 2.60133 10.4125 2.53781L11.1792 0.690634C10.3121 0.330684 9.31734 0.741844 8.95739 1.60899L10.8046 2.37575Z" fill="black" mask="url(#path-1-inside-1_3_63)"/>
</svg>
