<svg width="24" height="23" viewBox="0 0 24 23" fill="none" xmlns="http://www.w3.org/2000/svg">
<path fill-rule="evenodd" clip-rule="evenodd" d="M21.5454 9.4574L12.4423 2.03761C12.1848 1.82773 11.8152 1.82773 11.5578 2.03761L2.45463 9.45741C1.9442 9.87345 2.23839 10.7 2.89688 10.7H21.1031C21.7616 10.7 22.0558 9.87344 21.5454 9.4574ZM13.2636 1.02993C12.5279 0.430288 11.4721 0.430289 10.7364 1.02993L1.63329 8.44973C0.409585 9.44715 0.804496 11.2704 2.07481 11.8313C2.02586 12.0463 2.00001 12.2701 2.00001 12.5V19.5C2.00001 21.1569 3.34316 22.5 5.00001 22.5H9.50001H14.5H19C20.6569 22.5 22 21.1569 22 19.5V12.5C22 12.2701 21.9742 12.0463 21.9252 11.8313C23.1955 11.2704 23.5904 9.44715 22.3667 8.44973L13.2636 1.02993ZM20.6253 12H3.37473C3.32616 12.1581 3.30001 12.326 3.30001 12.5V19.5C3.30001 20.4389 4.06113 21.2 5.00001 21.2H9.00001V16.5C9.00001 16.2239 9.22387 16 9.50001 16H14.5C14.7762 16 15 16.2239 15 16.5V21.2H19C19.9389 21.2 20.7 20.4389 20.7 19.5V12.5C20.7 12.326 20.6739 12.1581 20.6253 12ZM13.8 21.2V17.2H10.2V21.2H13.8Z" fill="#FF7643"/>
</svg>
