<svg width="853" height="911" viewBox="0 0 853 911" fill="none" xmlns="http://www.w3.org/2000/svg">
<path d="M285 149C283.5 164 267 173 257 174.5L289.5 178L285 149Z" fill="#E9782D"/>
<path d="M343.005 149.216C344.778 164.187 361.439 172.885 371.464 174.202L339.033 178.293L343.005 149.216Z" fill="#E9782D"/>
<path d="M530 149C528.5 164 512 173 502 174.5L534.5 178L530 149Z" fill="#E9782D"/>
<path d="M588.005 149.216C589.778 164.187 606.439 172.885 616.464 174.202L584.034 178.293L588.005 149.216Z" fill="#E9782D"/>
<path d="M30.6458 721.409L1.18978 886.689C-0.994588 898.946 8.42977 910.198 20.8795 910.198H832.742C844.631 910.198 853.895 899.889 852.628 888.067L848.897 853.254C848.22 846.937 844.581 841.317 839.094 838.114L110.353 412.677C98.3277 405.657 82.9873 412.768 80.5729 426.482L61.415 535.297C60.0777 542.893 63.2271 550.581 69.5091 555.056L276.757 702.671C293.984 714.942 282.859 742.067 261.977 738.707L53.5121 705.172C42.7365 703.439 32.5608 710.664 30.6458 721.409Z" fill="#2B726B"/>
<path d="M115.762 307.861L791.919 700.657C806.608 709.19 824.574 696.683 821.671 679.946L793.448 517.231C792.436 511.396 788.89 506.309 783.764 503.341L540.871 362.698C522.721 352.188 530.926 324.385 551.874 325.414L737.551 334.532C750.149 335.15 760.167 324.096 758.316 311.62L740.458 191.263C739.003 181.458 730.586 174.198 720.674 174.198H140.377C130.486 174.198 122.081 181.429 120.602 191.209L106.033 287.578C104.806 295.695 108.664 303.738 115.762 307.861Z" fill="#E9782D"/>
<path fill-rule="evenodd" clip-rule="evenodd" d="M436.812 0C357.304 0 291.232 61.2811 285.258 140.565L282.682 174.767H589.122L588.782 149.902C587.643 66.7832 519.939 0 436.812 0ZM436.466 50.3055C390.454 50.3055 351.585 84.4439 345.648 130.071L340.139 172.403L530.468 173.6L527.83 135.555C524.502 87.5483 484.588 50.3055 436.466 50.3055Z" fill="#E9782D"/>
</svg>
