<svg width="178" height="199" viewBox="0 0 178 199" fill="none" xmlns="http://www.w3.org/2000/svg">
<path fill-rule="evenodd" clip-rule="evenodd" d="M84.305 1.49232C87.216 -0.162367 90.7831 -0.162367 93.6942 1.49232L172.699 46.4002C175.669 48.0887 177.504 51.2423 177.504 54.6592V144.341C177.504 147.758 175.669 150.911 172.699 152.6L93.6942 197.508C90.7831 199.162 87.216 199.162 84.305 197.508L5.30052 152.6C2.33003 150.911 0.49511 147.758 0.49511 144.341V54.6592C0.49511 51.2423 2.33002 48.0887 5.30052 46.4002L84.305 1.49232ZM89.2467 9.31662C89.0934 9.22953 88.9057 9.22953 88.7525 9.31662L13.4358 52.1283L31.7264 63.9633L108.015 19.9851L89.2467 9.31662ZM36.4996 108.284V71.6001L117.089 25.1427L131.185 33.1554L55.5638 74.6548C53.5508 75.4183 51.9996 77.3361 51.9996 79.8042V112.489L49.3966 109.176C48.1769 107.624 46.2188 106.844 44.2659 107.134L36.4996 108.284ZM66.4794 78.9307L88.6341 92.7775L163.199 51.3526L140.374 38.3787L66.4794 78.9307ZM9.49511 144.341V60.2982L27.4996 71.9481V112.341C27.4996 115.699 30.4833 118.274 33.8056 117.782L43.575 116.334L51.1748 126.007C54.4019 130.114 60.9996 127.832 60.9996 122.609V86.1191L83.9996 100.494V186.982L9.74803 144.775C9.59168 144.687 9.49511 144.521 9.49511 144.341ZM92.9996 187.55L168.251 144.775C168.407 144.687 168.504 144.521 168.504 144.341V58.7009L92.9996 100.648V187.55Z" fill="black"/>
</svg>
